<svg width="147" height="149" viewBox="0 0 147 149" fill="none" xmlns="http://www.w3.org/2000/svg">
<path fill-rule="evenodd" clip-rule="evenodd" d="M132.29 58.7432C131.429 58.4736 130.377 59.0623 129.917 60.059C124.326 71.7556 117.189 80.0607 108.751 84.8012C100.534 89.4161 91.1228 90.5128 80.8064 88.1139C78.5219 87.6082 77.1781 87.6097 73.5576 85.2716C75.9767 79.8026 76.6067 74.2761 76.2595 70.5983C75.7454 65.1673 70.3953 61.8315 67.2616 60.9576C64.128 60.0838 62.3305 60.2192 60.8478 60.6648C58.9506 61.2377 56.2879 62.3807 54.233 66.1752C51.9811 70.3334 51.9162 75.1836 54.6009 79.5193C56.015 81.7971 61.6287 86.323 63.9613 88.1226C62.3744 90.4948 59.7006 92.0442 56.9611 93.2165C51.1738 95.7348 45.8522 96.7632 37.6415 95.8902C31.2423 95.2098 17.3311 92.1223 12.1752 89.8337C7.6762 87.8366 6.22987 86.987 4.22285 86.349C1.14257 85.3483 1.54386 87.6621 2.56665 90.4304C5.6806 96.1516 20.4767 97.8395 27.2897 100.182C37.3603 102.694 48.7153 103.02 58.0987 99.1928C62.4918 97.3795 67.3145 94.8365 69.5917 91.2074C73.5139 93.4151 75.8821 94.3387 78.3185 94.8121C90.326 97.0011 101.146 95.1456 110.399 89.4468C119.645 83.7583 127.372 74.2636 133.021 61.0451C133.473 60.0423 133.151 59.0128 132.29 58.7432ZM63.6432 79.4622C61.8224 78.086 60.3231 76.4784 59.7664 75.1288C59.0616 73.4109 59.077 70.4883 60.1503 68.5122C60.3331 68.1804 60.7639 66.6207 63.5712 65.9358C68.0124 66.0066 69.1238 69.6428 69.4448 70.6558C71.0545 74.9597 69.0816 79.0819 67.9661 82.4488C66.1923 81.3888 63.777 79.6262 63.6432 79.4622Z" fill="#50D3FF"/>
<path fill-rule="evenodd" clip-rule="evenodd" d="M64.3615 67.1955C64.5545 67.194 64.7306 67.1636 64.6786 67.0443C64.6097 66.8963 64.5077 66.9817 64.3615 67.1955Z" fill="#47DAAC"/>
<path fill-rule="evenodd" clip-rule="evenodd" d="M129.664 64.2505C129.415 66.3395 129.225 68.521 129.222 70.5027C129.229 73.5887 129.632 76.1946 130.85 77.5843C131.332 78.3462 132.411 78.391 133.242 77.6865C134.082 76.9881 134.367 75.7967 133.877 75.0452C133.695 74.6359 133.711 74.0991 133.7 73.5108C133.666 72.1301 134.033 70.4675 134.436 68.6703C134.952 66.3768 135.682 63.968 136.266 61.7895C136.8 59.8158 137.204 58.0352 137.396 56.6939C137.7 54.5817 137.31 53.1626 136.87 52.4479C136.752 52.2631 133.941 50.0917 131.217 53.0659C130.244 54.1329 127.885 56.943 127.769 57.0823C126.384 58.8751 123.799 62.1619 121.123 64.6073C120.278 65.3821 119.456 66.1093 118.65 66.5906C118.584 66.5416 118.518 66.4927 118.445 66.454C117.355 65.821 115.796 66.3869 114.936 67.7151C114.442 68.3962 113.963 69.8142 113.936 70.5204C113.89 71.8894 114.627 72.5666 115.968 72.7249C117.793 72.9371 120.058 72.0412 122.44 70.5065C124.94 68.8821 127.575 66.4062 129.664 64.2505ZM130.717 57.436C130.791 56.9915 130.774 56.7047 130.511 56.7833C130.216 56.8703 130.541 57.2248 130.717 57.436Z" fill="#50D3FF"/>
</svg>
