<svg width="131" height="128" viewBox="0 0 131 128" fill="none" xmlns="http://www.w3.org/2000/svg">
<path fill-rule="evenodd" clip-rule="evenodd" d="M119.929 33.0272C119.458 33.867 118.276 34.1712 117.27 33.723C105.317 28.6055 94.4434 27.2807 84.9458 29.7067C75.6983 32.07 67.8768 38.0703 61.685 47.4783C60.297 49.5415 59.2828 50.5202 58.0994 54.9981C63.5406 57.5333 67.6708 61.4184 69.8416 64.5626C73.0461 69.2069 71.2184 75.7302 69.4337 78.7021C67.6489 81.6739 66.2041 82.8781 64.7914 83.6089C62.9821 84.5419 60.2184 85.5849 56.1593 84.1003C51.7112 82.4735 48.4544 78.7081 47.6109 73.3422C47.1706 70.5206 48.4097 62.8695 48.9783 59.754C46.2128 59.0463 43.172 59.7779 40.3311 60.8539C34.302 63.0941 29.6093 66.1658 23.996 72.839C19.6211 78.0398 11.1743 90.6103 8.80052 96.1688C6.72918 101.019 6.20063 102.742 5.1093 104.707C3.4487 107.739 2.22088 105.628 1.16115 102.706C-0.275056 95.9378 9.76466 83.8223 13.352 77.0128C19.2837 67.6953 27.6295 59.1595 37.2361 55.3265C41.7478 53.5487 47.066 52.0312 51.1833 53.2236C52.6804 48.6283 53.8551 46.1755 55.3789 44.0268C62.9847 33.5508 72.3701 27.1198 83.1161 24.8528C93.8493 22.5833 105.956 24.4127 118.958 30.6846C119.962 31.1436 120.4 32.1873 119.929 33.0272ZM54.4665 66.794C54.0038 69.2035 53.9367 71.5603 54.4096 73.0272C55.0143 74.8916 56.959 77.1778 59.0752 77.9486C59.4325 78.0761 60.7889 78.9881 63.3586 77.4796C66.6604 74.1856 65.0934 70.5168 64.6654 69.4865C63.0324 64.9294 58.8185 63.1274 55.7505 61.2941C55.1142 63.4207 54.4588 66.5675 54.4665 66.794Z" fill="#47DAAC"/>
<path fill-rule="evenodd" clip-rule="evenodd" d="M63.1212 75.913C63.2678 75.7735 63.4206 75.669 63.4604 75.8006C63.5063 75.9673 63.3729 75.9745 63.1212 75.913Z" fill="#47DAAC"/>
<path fill-rule="evenodd" clip-rule="evenodd" d="M114.307 30.6126C112.737 29.1521 111.151 27.5757 109.838 26.0201C107.802 23.589 106.382 21.247 106.381 19.2667C106.241 18.3162 107.025 17.4938 108.118 17.4417C109.212 17.3788 110.215 18.1076 110.343 19.0555C110.477 19.5097 110.843 19.9204 111.225 20.3902C112.112 21.5009 113.488 22.5404 114.981 23.6593C116.887 25.0858 119.031 26.4471 120.912 27.7336C122.62 28.8955 124.102 30.0011 125.134 30.9157C126.761 32.3539 127.405 33.7537 127.546 34.6368C127.579 34.8684 126.896 38.6247 122.875 38.2728C121.436 38.1434 117.798 37.6542 117.619 37.6296C115.389 37.2299 111.265 36.5313 107.631 36.5602C106.481 36.5672 105.38 36.5951 104.454 36.8042C104.437 36.8908 104.42 36.9773 104.39 37.0613C103.987 38.3535 102.437 39.0457 100.91 38.6287C100.087 38.4533 98.7879 37.688 98.3009 37.1521C97.3606 36.1095 97.4684 35.0397 98.3744 33.9379C99.61 32.4405 101.911 31.493 104.722 30.9624C107.681 30.4164 111.305 30.4416 114.307 30.6126ZM119.607 35.2023C119.957 35.4972 120.134 35.735 119.884 35.8651C119.604 36.0118 119.614 35.4963 119.607 35.2023Z" fill="#47DAAC"/>
</svg>
