<svg width="151" height="154" viewBox="0 0 151 154" fill="none" xmlns="http://www.w3.org/2000/svg">
<path fill-rule="evenodd" clip-rule="evenodd" d="M15.3382 53.0148C16.2885 52.8396 17.3059 53.5794 17.6352 54.6711C21.7052 67.5066 27.9344 77.006 36.093 82.9599C44.0377 88.7562 53.7923 91.0422 65.0474 89.8061C67.5358 89.559 68.9528 89.7242 73.1366 87.7356C71.4397 81.758 71.6387 75.9384 72.5795 72.159C73.9702 66.578 80.134 63.7634 83.5755 63.2371C87.0169 62.7107 88.8916 63.0704 90.3857 63.7141C92.297 64.5405 94.9268 66.0526 96.5011 70.2459C98.2264 74.8411 97.5371 79.889 94.0282 84.0674C92.1809 86.262 85.5533 90.2813 82.812 91.8671C84.1149 94.5254 86.6929 96.4612 89.3989 98.013C95.1092 101.335 100.561 103.052 109.357 103.145C116.212 103.217 131.366 101.703 137.162 99.9533C142.218 98.4261 143.877 97.7194 146.093 97.3009C149.498 96.6362 148.713 98.9918 147.202 101.744C143.024 107.31 127.155 107.261 119.604 108.866C108.59 110.249 96.5638 109.205 87.2655 104.085C82.9155 101.665 78.2265 98.4352 76.3918 94.3868C71.9103 96.203 69.2684 96.8744 66.6248 97.0695C53.6189 97.8815 42.4972 94.6355 33.6287 87.5865C24.7667 80.5492 18.1003 69.7416 14.2075 55.3177C13.8878 54.2207 14.3878 53.19 15.3382 53.0148ZM84.5006 82.9065C86.636 81.6983 88.4683 80.2104 89.2663 78.8758C90.2781 77.1765 90.7184 74.1377 89.8952 71.9535C89.7542 71.5865 89.5436 69.9132 86.6899 68.8596C81.9948 68.3922 80.2546 72.0353 79.7577 73.0488C77.3876 77.3251 78.8243 81.8489 79.4747 85.4834C81.5111 84.5981 84.3339 83.0607 84.5006 82.9065Z" fill="#EB5652"/>
<path fill-rule="evenodd" clip-rule="evenodd" d="M85.6595 70.0724C85.4562 70.0472 85.2752 69.9942 85.3487 69.8766C85.4445 69.7311 85.5387 69.8324 85.6595 70.0724Z" fill="#EB5652"/>
<path fill-rule="evenodd" clip-rule="evenodd" d="M17.2472 59.0573C17.1835 61.2584 17.043 63.5484 16.7366 65.6081C16.247 68.814 15.4153 71.4729 13.914 72.7685C13.2864 73.5015 12.1408 73.4166 11.3745 72.5833C10.5984 71.7553 10.4841 70.4827 11.1182 69.7614C11.3737 69.3582 11.4412 68.7985 11.5438 68.1885C11.7961 66.7579 11.6689 64.9855 11.5247 63.0689C11.3385 60.6228 10.9449 58.0308 10.6691 55.6959C10.414 53.5799 10.2667 51.6804 10.274 50.2633C10.2826 48.0314 10.9156 46.6042 11.4918 45.9152C11.6455 45.7375 14.9492 43.8236 17.3573 47.246C18.2164 48.4731 20.2652 51.6806 20.3662 51.8395C21.5464 53.8711 23.7597 57.6016 26.1998 60.4686C26.9699 61.3766 27.7235 62.2324 28.4981 62.8308C28.5752 62.7879 28.6523 62.745 28.736 62.7138C29.9842 62.1887 31.5404 62.9668 32.2399 64.4517C32.6543 65.2196 32.938 66.7514 32.8555 67.4885C32.6903 68.9166 31.8072 69.5306 30.3687 69.5318C28.4109 69.53 26.1618 68.3231 23.889 66.4382C21.506 64.4457 19.1141 61.5519 17.2472 59.0573ZM17.2022 51.848C17.1928 51.3771 17.2554 51.0811 17.5206 51.1948C17.8182 51.3211 17.4203 51.6499 17.2022 51.848Z" fill="#EB5652"/>
</svg>
