<svg width="138" height="140" viewBox="0 0 138 140" fill="none" xmlns="http://www.w3.org/2000/svg">
<path fill-rule="evenodd" clip-rule="evenodd" d="M11.7814 49.3189C12.3908 50.0577 13.5501 50.1506 14.3914 49.5394C24.4289 42.4792 34.2445 39.3086 43.5531 40.0383C52.6168 40.7499 61.1042 45.2591 68.7792 53.3771C70.4904 55.1522 71.632 55.9328 73.6489 60.1011C69.1216 63.5159 66.0875 68.0225 64.7191 71.4674C62.6996 76.5555 65.734 82.61 67.9996 85.2039C70.2652 87.7978 71.8528 88.7243 73.3133 89.1941C75.1832 89.7928 77.9611 90.3342 81.4219 88.184C85.2144 85.8277 87.4629 81.5887 87.144 76.2034C86.9733 73.3722 84.2534 66.1149 83.0866 63.1709C85.5068 62.0025 88.4778 62.192 91.3341 62.7524C97.387 63.8992 102.371 66.0888 108.948 71.6361C114.074 75.9595 124.49 86.7763 127.833 91.7944C130.75 96.1731 131.594 97.7639 133.009 99.4942C135.172 102.169 135.878 99.8952 136.261 96.8591C136.204 90.0023 124.404 79.9047 119.679 73.8746C112.263 65.8001 102.769 58.9055 93.0708 56.8207C88.5205 55.8635 83.2754 55.2997 79.7007 57.1746C77.3686 52.9458 75.7755 50.7535 73.9208 48.9184C64.715 40.0015 54.6883 35.3417 44.2543 34.9828C33.8314 34.6192 22.9762 38.4952 12.2017 46.8638C11.3647 47.4852 11.1721 48.5801 11.7814 49.3189ZM79.4402 70.9925C80.364 73.2655 80.91 75.5553 80.7724 77.0693C80.594 78.9943 79.2592 81.5623 77.4543 82.6802C77.149 82.8664 76.0778 83.9911 73.3844 82.9616C69.6454 80.315 70.346 76.462 70.5316 75.382C71.1111 70.6503 74.6504 68.1634 77.1202 65.8436C78.147 67.8104 79.4008 70.77 79.4402 70.9925Z" fill="#FFD542"/>
<path fill-rule="evenodd" clip-rule="evenodd" d="M73.2831 81.3909C73.1184 81.28 72.9552 81.2043 72.9454 81.3397C72.937 81.5104 73.0622 81.4944 73.2831 81.3909Z" fill="#FFD542"/>
<path fill-rule="evenodd" clip-rule="evenodd" d="M16.5016 45.9907C17.6579 44.2936 18.8056 42.4806 19.7044 40.7349C21.094 38.0096 21.9307 35.4776 21.5251 33.5437C21.4602 32.5914 20.5639 31.9237 19.5396 32.0614C18.5112 32.1889 17.7305 33.0736 17.8066 34.0213C17.7757 34.4879 17.5198 34.9522 17.2624 35.4768C16.6675 36.7145 15.604 37.9671 14.4491 39.3173C12.9736 41.0392 11.2644 42.7385 9.78314 44.3195C8.43693 45.7489 7.2891 47.0843 6.51969 48.1554C5.30578 49.8406 4.99511 51.3188 5.04592 52.2053C5.06284 52.4372 6.46758 55.9873 10.1255 54.9496C11.4339 54.5748 14.7076 53.4694 14.8694 53.4143C16.8559 52.6391 20.5377 51.2453 23.9157 50.646C24.9835 50.4545 26.0105 50.2917 26.9124 50.3361C26.9462 50.4176 26.98 50.4992 27.025 50.576C27.664 51.7683 29.244 52.1766 30.5749 51.5059C31.3022 51.1926 32.3503 50.221 32.6921 49.6137C33.3503 48.4334 33.0307 47.4074 31.9641 46.4878C30.5105 45.2389 28.1819 44.7108 25.4651 44.6779C22.6076 44.6555 19.2507 45.3057 16.5016 45.9907ZM12.5265 51.3873C12.2621 51.7357 12.1468 51.9985 12.4056 52.0823C12.6955 52.1772 12.58 51.6757 12.5265 51.3873Z" fill="#FFD542"/>
</svg>
